<svg width="50" height="50" viewBox="0 0 50 50" fill="none" xmlns="http://www.w3.org/2000/svg">
<rect width="50" height="50" rx="10" fill="url(#paint0_linear_5_26)"/>
<path fill-rule="evenodd" clip-rule="evenodd" d="M32.0497 28.0538C31.6658 27.8628 29.7837 26.9423 29.4333 26.8141C29.083 26.6872 28.8279 26.6244 28.5715 27.0064C28.3165 27.3859 27.5835 28.2449 27.3606 28.4987C27.1364 28.7538 26.9136 28.7846 26.531 28.5949C26.1484 28.4026 24.9143 28.0013 23.4521 26.7038C22.3146 25.6936 21.5456 24.4462 21.3227 24.0641C21.0998 23.6833 21.2982 23.4769 21.4902 23.2872C21.6628 23.1167 21.8728 22.8423 22.0647 22.6205C22.2567 22.3974 22.3198 22.2385 22.4473 21.9833C22.5761 21.7295 22.5117 21.5077 22.4151 21.3167C22.3198 21.1256 21.5546 19.25 21.2351 18.4872C20.9246 17.7449 20.609 17.8462 20.3746 17.8333C20.1504 17.8231 19.8954 17.8205 19.6403 17.8205C19.3852 17.8205 18.9704 17.9154 18.62 18.2974C18.2683 18.6782 17.2803 19.6 17.2803 21.4756C17.2803 23.35 18.6509 25.1615 18.8429 25.4167C19.0348 25.6705 21.5417 29.5192 25.3819 31.1692C26.2965 31.5615 27.0089 31.7961 27.5641 31.9705C28.4814 32.2615 29.3161 32.2205 29.9757 32.1218C30.71 32.0128 32.2404 31.2 32.5599 30.3102C32.8781 29.4205 32.878 28.6577 32.7827 28.4987C32.6874 28.3397 32.4323 28.2449 32.0484 28.0538H32.0497ZM25.065 37.5449H25.0598C22.779 37.5453 20.5399 36.9351 18.5775 35.7782L18.1138 35.5038L13.2932 36.7628L14.5802 32.0859L14.2774 31.6064C13.0023 29.5863 12.3274 27.2484 12.3309 24.8628C12.3335 17.8757 18.0455 12.191 25.0701 12.191C28.471 12.191 31.6684 13.5116 34.0722 15.9064C35.2579 17.0815 36.1976 18.4789 36.8371 20.0178C37.4766 21.5567 37.8031 23.2065 37.7978 24.8718C37.7952 31.859 32.0832 37.5449 25.065 37.5449ZM35.9015 14.0872C34.4821 12.6653 32.7933 11.5379 30.933 10.7703C29.0726 10.0027 27.0776 9.61013 25.0637 9.61541C16.6207 9.61541 9.74675 16.4551 9.74418 24.8615C9.74027 27.5369 10.4455 30.1659 11.7886 32.4833L9.61536 40.3846L17.7363 38.2641C19.9828 39.4822 22.5003 40.1204 25.0585 40.1205H25.065C33.508 40.1205 40.3819 33.2808 40.3845 24.8731C40.3907 22.8696 39.9977 20.8848 39.2282 19.0334C38.4587 17.182 37.328 15.5009 35.9015 14.0872Z" fill="white"/>
<defs>
<linearGradient id="paint0_linear_5_26" x1="25" y1="0" x2="25" y2="50" gradientUnits="userSpaceOnUse">
<stop stop-color="#54F172"/>
<stop offset="1" stop-color="#0CBD2A"/>
</linearGradient>
</defs>
</svg>
