<svg width="294" height="77" viewBox="0 0 294 77" fill="none" xmlns="http://www.w3.org/2000/svg">
<g clip-path="url(#clip0_20_2)">
<path d="M69.3 3.89421e-06H7.7C3.45345 3.89421e-06 0 3.4419 0 7.6692V53.9308C0 58.1581 3.45345 61.6 7.7 61.6H17.71C18.5605 61.6 19.25 62.2896 19.25 63.14V74.2101C19.25 75.4221 20.5852 76.1592 21.6107 75.5133L43.3251 61.8368C43.5709 61.6822 43.8555 61.6 44.1459 61.6H69.3C73.5467 61.6 77 58.1581 77 53.9308V7.6692C76.9938 5.63175 76.1798 3.67995 74.7362 2.24213C73.2926 0.804321 71.3374 -0.00204479 69.3 3.89421e-06Z" fill="url(#paint0_linear_20_2)"/>
<path d="M51.6596 50.1495L33.925 46.2481C33.6259 46.1828 33.3425 46.0586 33.0909 45.8828C32.8396 45.7069 32.6249 45.4827 32.4595 45.223C32.2941 44.9634 32.1808 44.6733 32.1265 44.3696C32.0723 44.0659 32.0779 43.7542 32.1432 43.4526L38.6358 13.6106C38.7695 13.0014 39.1372 12.4706 39.6584 12.1347C40.1792 11.7987 40.8112 11.6851 41.4152 11.8186L59.1489 15.7213C59.448 15.7866 59.7313 15.9107 59.9827 16.0866C60.234 16.2625 60.4487 16.4866 60.6141 16.7463C60.7798 17.0059 60.8928 17.2959 60.947 17.5997C61.0012 17.9035 60.9957 18.2151 60.9304 18.5167L54.4378 48.3588C54.3041 48.9674 53.9363 49.4978 53.4155 49.8335C52.8947 50.1692 52.2633 50.2829 51.6596 50.1495Z" fill="url(#paint1_linear_20_2)"/>
<path d="M41.0792 46.5964L23.1216 49.2584C22.51 49.3499 21.8873 49.1925 21.3904 48.8214C20.8935 48.4499 20.5631 47.8949 20.4716 47.2777L16.0404 17.0565C15.9962 16.7511 16.0121 16.4398 16.0872 16.1406C16.1623 15.8413 16.295 15.5599 16.4779 15.3124C16.6608 15.0649 16.8902 14.8562 17.153 14.6982C17.4159 14.5402 17.707 14.436 18.0098 14.3915L35.9685 11.7295C36.5802 11.6379 37.203 11.795 37.6998 12.1664C38.1966 12.5377 38.5274 13.0929 38.6189 13.71L43.0482 43.9313C43.0926 44.2368 43.0766 44.5479 43.0014 44.8473C42.9266 45.1463 42.7938 45.4278 42.6109 45.6752C42.4279 45.9228 42.1988 46.1316 41.9357 46.2896C41.673 46.4476 41.382 46.5517 41.0792 46.5964Z" fill="url(#paint2_linear_20_2)"/>
<path d="M49.8704 29.4209C48.5571 27.5761 48.116 25.7306 47.9494 24.6364C47.4819 25.6367 46.5415 27.2785 44.7647 28.667C44.0175 29.2499 43.197 29.7317 42.3241 30.1002C43.0574 30.7057 43.7086 31.4046 44.2611 32.1795C45.5744 34.0241 46.0152 35.8697 46.1821 36.964C46.6496 35.9636 47.59 34.3217 49.3668 32.9332C50.114 32.3505 50.9345 31.8687 51.8071 31.5001C51.0741 30.8945 50.423 30.1956 49.8704 29.4209Z" fill="#B97B45"/>
<path d="M34.9213 29.3188C34.1923 28.1241 33.0154 27.9886 31.5238 27.2374C30.4901 26.7149 29.0828 25.7788 27.6782 23.9711C27.1332 26.193 26.2287 27.6194 25.4963 28.5166C24.442 29.8096 23.4231 30.4109 23.2455 31.7979C23.2228 31.976 23.098 33.1972 23.9373 34.1942C24.767 35.1795 26.1491 35.4792 27.1768 35.1678C27.8667 34.9583 28.4044 34.4717 28.5695 34.3115C29.1356 33.7654 29.2587 33.2924 29.3986 33.3352C29.6179 33.402 29.6278 34.674 29.0336 35.7351C28.7756 36.19 28.4251 36.5852 28.0049 36.8947L29.1868 36.6431L30.3314 36.4001L31.4763 36.1571L32.6591 35.9057C32.1484 35.7939 31.667 35.5756 31.2457 35.2648C30.2696 34.5373 29.7592 33.3715 29.932 33.2215C30.0416 33.126 30.3475 33.5083 31.0873 33.7781C31.3036 33.8566 31.9926 34.0839 32.709 33.9946C33.7746 33.8612 34.9146 33.0259 35.2694 31.789C35.6279 30.5371 35.0147 29.4722 34.9213 29.3188Z" fill="#B97B45"/>
</g>
<path d="M126.555 40.4297V46.8516H129.391C131.203 46.8516 132.508 46.6172 133.305 46.1484C134.086 45.6797 134.477 44.8516 134.477 43.6641C134.477 42.5547 134.125 41.7344 133.422 41.2031C132.719 40.6875 131.359 40.4297 129.344 40.4297H126.555ZM126.555 28.5469V34.5H129.344C131.234 34.5 132.477 34.2266 133.07 33.6797C133.633 33.1328 133.914 32.4141 133.914 31.5234C133.914 30.7578 133.656 30.0703 133.141 29.4609C132.625 28.8516 131.211 28.5469 128.898 28.5469H126.555ZM129.555 54H111.109V46.1953H113.945V29.2031H111.109V21.3984H131.031C134.938 21.3984 137.961 21.625 140.102 22.0781C142.211 22.5469 143.867 23.4766 145.07 24.8672C146.273 26.2891 146.875 27.9453 146.875 29.8359C146.875 31.6797 146.305 33.1484 145.164 34.2422C143.992 35.3672 142.57 36.1484 140.898 36.5859C143.195 37.2734 144.961 38.3359 146.195 39.7734C147.445 41.2422 148.07 42.8906 148.07 44.7188C148.07 46.9062 147.367 48.7656 145.961 50.2969C144.555 51.8125 142.625 52.8047 140.172 53.2734C137.75 53.7578 134.211 54 129.555 54ZM163.656 40.8516H170.289C170.32 40.3828 170.336 40.1172 170.336 40.0547C170.336 38.8203 170.023 37.7969 169.398 36.9844C168.773 36.1875 167.945 35.7891 166.914 35.7891C165.852 35.7891 165.039 36.2266 164.477 37.1016C163.914 37.9922 163.633 39.0859 163.633 40.3828C163.633 40.5547 163.641 40.7109 163.656 40.8516ZM171.156 46.8047L180.883 48C180.445 49.0156 179.836 49.9297 179.055 50.7422C178.273 51.5391 177.32 52.2344 176.195 52.8281C173.93 54.0469 171.219 54.6562 168.062 54.6562C162.766 54.6562 158.781 53.5547 156.109 51.3516C153.438 49.1641 152.102 46.2969 152.102 42.75C152.102 39.2812 153.422 36.3906 156.062 34.0781C158.672 31.7656 162.211 30.6094 166.68 30.6094C170.977 30.6094 174.477 31.7031 177.18 33.8906C179.836 36.0625 181.25 39.3672 181.422 43.8047H163.516C163.562 47.4922 164.938 49.3359 167.641 49.3359C169.266 49.3359 170.438 48.4922 171.156 46.8047ZM203.734 45.7031V52.6875C202.969 53.2031 201.859 53.6562 200.406 54.0469C198.875 54.4531 197.406 54.6562 196 54.6562C194.234 54.6562 192.719 54.3672 191.453 53.7891C190.156 53.1953 189.18 52.3984 188.523 51.3984C188.164 50.8203 187.898 50.2969 187.727 49.8281C187.555 49.3438 187.43 48.8047 187.352 48.2109C187.242 47.1797 187.188 45.1875 187.188 42.2344V38.4141H184.281V31.2656H187.188V27.7734L198.977 22.1719V31.2656H203.734V38.4141H198.977V42.8203C198.977 44.2578 199.109 45.2188 199.375 45.7031C199.625 46.1875 200.156 46.4297 200.969 46.4297C201.734 46.4297 202.656 46.1875 203.734 45.7031ZM224.641 47.6953H207.906V37.5938H224.641V47.6953ZM253.82 54H234.32V46.5H238.961V31.7578C238.117 31.9766 236.961 32.0859 235.492 32.0859C235.023 32.0859 234.633 32.0625 234.32 32.0156V24.7969C234.508 24.8125 234.703 24.8203 234.906 24.8203C236.953 24.8203 238.852 24.4219 240.602 23.625C242.383 22.8125 243.656 21.8516 244.422 20.7422H249.32V46.5H253.82V54ZM286.867 54H267.367V46.5H272.008V31.7578C271.164 31.9766 270.008 32.0859 268.539 32.0859C268.07 32.0859 267.68 32.0625 267.367 32.0156V24.7969C267.555 24.8125 267.75 24.8203 267.953 24.8203C270 24.8203 271.898 24.4219 273.648 23.625C275.43 22.8125 276.703 21.8516 277.469 20.7422H282.367V46.5H286.867V54Z" fill="url(#paint3_linear_20_2)"/>
<defs>
<linearGradient id="paint0_linear_20_2" x1="1.848" y1="1.54" x2="74.536" y2="58.674" gradientUnits="userSpaceOnUse">
<stop stop-color="#9A4B14"/>
<stop offset="1" stop-color="#D8AA75"/>
</linearGradient>
<linearGradient id="paint1_linear_20_2" x1="32.0887" y1="30.9842" x2="60.9849" y2="30.9842" gradientUnits="userSpaceOnUse">
<stop stop-color="white"/>
<stop offset="1" stop-color="#CCCCCC"/>
</linearGradient>
<linearGradient id="paint2_linear_20_2" x1="16.0152" y1="30.4939" x2="43.0738" y2="30.4939" gradientUnits="userSpaceOnUse">
<stop stop-color="white"/>
<stop offset="1" stop-color="#CCCCCC"/>
</linearGradient>
<linearGradient id="paint3_linear_20_2" x1="121.5" y1="23" x2="281" y2="54" gradientUnits="userSpaceOnUse">
<stop stop-color="#A35922"/>
<stop offset="0.560417" stop-color="#D8AA75"/>
</linearGradient>
<clipPath id="clip0_20_2">
<rect width="77" height="77" fill="white"/>
</clipPath>
</defs>
</svg>
